<svg width="95" height="95" viewBox="0 0 95 95" fill="none" xmlns="http://www.w3.org/2000/svg">
<path d="M92.2168 56.0352H90.9629L87.5566 28.7857C87.3826 27.3928 86.1986 26.3477 84.7949 26.3477H75.5176C74.1139 26.3477 72.9299 27.3928 72.7559 28.7857L69.3496 56.0352H64.9863L61.58 28.7857C61.406 27.3928 60.222 26.3477 58.8184 26.3477H49.541C48.1374 26.3477 46.9534 27.3928 46.7793 28.7857L43.3731 56.0352H39.3359V36.5527C39.3359 35.0157 38.0898 33.7695 36.5527 33.7695H2.7832C1.24613 33.7695 0 35.0157 0 36.5527V92.2168C0 93.7539 1.24613 95 2.7832 95H92.2168C93.7539 95 95 93.7539 95 92.2168V58.8184C95 57.2813 93.7539 56.0352 92.2168 56.0352ZM77.9746 31.9141H82.3381L85.3532 56.0352H74.9595L77.9746 31.9141ZM51.998 31.9141H56.3615L59.3767 56.0352H48.9829L51.998 31.9141ZM5.56641 39.3359H33.7695V58.8184V89.4336H28.0176V77.373C28.0176 75.836 26.7714 74.5898 25.2344 74.5898H14.1016C12.5645 74.5898 11.3184 75.836 11.3184 77.373V89.4336H5.56641V39.3359ZM16.8848 89.4336V80.1562H22.4512V89.4336H16.8848ZM54.1797 89.4336V83.8672H74.5898V89.4336H54.1797ZM89.4336 89.4336H80.1562V81.084C80.1562 79.5469 78.9101 78.3008 77.373 78.3008H51.3965C49.8594 78.3008 48.6133 79.5469 48.6133 81.084V89.4336H39.3359V61.6016H89.4336V89.4336Z" fill="#6D6D6D"/>
<path d="M66.2402 67.168H62.5293C60.9922 67.168 59.7461 68.4141 59.7461 69.9512C59.7461 71.4882 60.9922 72.7344 62.5293 72.7344H66.2402C67.7773 72.7344 69.0234 71.4882 69.0234 69.9512C69.0234 68.4141 67.7773 67.168 66.2402 67.168Z" fill="#6D6D6D"/>
<path d="M81.084 67.168H77.373C75.836 67.168 74.5898 68.4141 74.5898 69.9512C74.5898 71.4882 75.836 72.7344 77.373 72.7344H81.084C82.6211 72.7344 83.8672 71.4882 83.8672 69.9512C83.8672 68.4141 82.6211 67.168 81.084 67.168Z" fill="#6D6D6D"/>
<path d="M36.5527 11.1328H74.5898C76.1245 11.1328 77.373 12.3814 77.373 13.916V19.4824C77.373 21.0195 78.6192 22.2656 80.1562 22.2656C81.6933 22.2656 82.9395 21.0195 82.9395 19.4824V13.916C82.9395 9.31204 79.1938 5.56641 74.5898 5.56641H36.5527C35.0181 5.56641 33.7695 4.31786 33.7695 2.7832C33.7695 1.24613 32.5234 0 30.9863 0C29.4493 0 28.2031 1.24613 28.2031 2.7832C28.2031 7.38718 31.9488 11.1328 36.5527 11.1328Z" fill="#6D6D6D"/>
<path d="M25.4199 22.2656H54.1797C55.7168 22.2656 56.9629 21.0195 56.9629 19.4824C56.9629 17.9454 55.7168 16.6992 54.1797 16.6992H25.4199C23.8853 16.6992 22.6367 15.4507 22.6367 13.916C22.6367 12.3789 21.3906 11.1328 19.8535 11.1328C18.3164 11.1328 17.0703 12.3789 17.0703 13.916C17.0703 18.52 20.8159 22.2656 25.4199 22.2656Z" fill="#6D6D6D"/>
<path d="M25.2344 69.0234C26.7714 69.0234 28.0176 67.7773 28.0176 66.2402V62.5293C28.0176 60.9922 26.7714 59.7461 25.2344 59.7461C23.6973 59.7461 22.4512 60.9922 22.4512 62.5293V66.2402C22.4512 67.7773 23.6973 69.0234 25.2344 69.0234Z" fill="#6D6D6D"/>
<path d="M14.1016 69.0234C15.6386 69.0234 16.8848 67.7773 16.8848 66.2402V62.5293C16.8848 60.9922 15.6386 59.7461 14.1016 59.7461C12.5645 59.7461 11.3184 60.9922 11.3184 62.5293V66.2402C11.3184 67.7773 12.5645 69.0234 14.1016 69.0234Z" fill="#6D6D6D"/>
<path d="M25.2344 54.1797C26.7714 54.1797 28.0176 52.9336 28.0176 51.3965V47.6855C28.0176 46.1485 26.7714 44.9023 25.2344 44.9023C23.6973 44.9023 22.4512 46.1485 22.4512 47.6855V51.3965C22.4512 52.9336 23.6973 54.1797 25.2344 54.1797Z" fill="#6D6D6D"/>
<path d="M14.1016 54.1797C15.6386 54.1797 16.8848 52.9336 16.8848 51.3965V47.6855C16.8848 46.1485 15.6386 44.9023 14.1016 44.9023C12.5645 44.9023 11.3184 46.1485 11.3184 47.6855V51.3965C11.3184 52.9336 12.5645 54.1797 14.1016 54.1797Z" fill="#6D6D6D"/>
<path d="M51.3965 67.168H47.6855C46.1485 67.168 44.9023 68.4141 44.9023 69.9512C44.9023 71.4882 46.1485 72.7344 47.6855 72.7344H51.3965C52.9336 72.7344 54.1797 71.4882 54.1797 69.9512C54.1797 68.4141 52.9336 67.168 51.3965 67.168Z" fill="#6D6D6D"/>
</svg>
