<svg width="95" height="95" viewBox="0 0 95 95" fill="none" xmlns="http://www.w3.org/2000/svg">
<g clip-path="url(#clip0)">
<path d="M79.4749 59.2424C83.4446 53.2135 85.7589 46.0026 85.7589 38.2596C85.7589 17.1631 68.5951 0 47.4986 0C26.402 0 9.23893 17.1631 9.23893 38.2596C9.23893 46.0026 11.5532 53.2135 15.5222 59.2424L0.556641 81.068L17.6813 77.8753L20.8747 95L34.9879 74.4166C38.9105 75.7778 43.1194 76.5192 47.4986 76.5192C51.8785 76.5192 56.0873 75.7778 60.0092 74.4166L74.1231 95L77.3158 77.8753L94.4405 81.068L79.4749 59.2424ZM23.9008 80.6853L22.1591 71.3442L12.8187 73.0866L19.1215 63.8941C22.1402 67.2325 25.7388 70.036 29.7556 72.148L23.9008 80.6853ZM14.838 38.2596C14.838 20.2507 29.4896 5.59902 47.4986 5.59902C65.5082 5.59902 80.1599 20.2507 80.1599 38.2596C80.1599 56.2693 65.5082 70.9209 47.4986 70.9209C29.4896 70.9209 14.838 56.2693 14.838 38.2596ZM72.838 71.3442L71.0963 80.6853L65.2422 72.148C69.259 70.036 72.8576 67.2325 75.8764 63.8941L82.1791 73.0859L72.838 71.3442Z" fill="#6D6D6D"/>
<path d="M40.6782 46.6621L31.5748 37.5594L27.616 41.5182L40.6782 54.5804L67.3817 27.8776L63.4229 23.9188L40.6782 46.6621Z" fill="#6D6D6D"/>
</g>
<defs>
<clipPath id="clip0">
<rect width="95" height="95" fill="white"/>
</clipPath>
</defs>
</svg>
