<svg width="147" height="93" viewBox="0 0 147 93" fill="none" xmlns="http://www.w3.org/2000/svg">
<path d="M138.051 63.4204L133.876 57.6654L128.885 56.3703L126.917 60.0433L124.05 59.8888L123.206 47.9697L126.692 40.5271L129.574 39.0489L126.749 31.2405L128.745 26.4562L130.966 27.7931L135.436 36.6859L137.896 38.4588L146.514 40.5826L139.612 28.778L135.465 29.1998L132.597 26.6668L132.61 20.1524L129.279 11.7799L125.019 9.20455L123.333 6.03865L125.694 2.76001L121.589 0.199585L120.83 4.23766L115.404 9.95025L113.562 15.5226L114.279 18.4218L109.303 23.5993L107.925 27.3845L104.776 27.6517L100.798 31.1702L101.43 34.0682L97.7755 39.0637L95.1322 36.1931L92.1099 38.698L84.828 40.2318L84.7108 40.4555L83.8583 35.0108L81.131 35.2082L72.5271 38.9785L70.6575 42.4265L67.0731 42.7212L65.2035 44.9034L61.7729 45.2405L59.5802 42.5524L54.28 48.0401L44.5384 42.9089L31.2393 39.9073L29.0042 41.0192L31.6189 35.5035L31.6018 35.4423L33.2215 39.4151L37.4251 39.3167L36.3142 30.3821L33.0952 30.1286L25.1946 36.0798L24.5199 38.2757L18.3627 39.6686L15.6074 38.7112L10.7011 42.0602L11.4741 45.3252L6.94749 55.1886L9.02812 62.309L3.54552 64.011L0.143555 64.3772L0.635268 70.6243L4.95148 78.1665L5.96349 82.4301L9.35117 76.3089L11.1368 75.8167L14.1454 76.5201L14.2717 70.4692L17.4204 68.8233L25.3307 70.2936L32.7544 78.0429L37.1575 74.2687L48.559 76.4359L51.033 81.135L54.2383 80.6148L58.5259 88.2829L64.2195 89.3805L68.7461 92.8006L75.0297 89.6764L83.0847 90.9286L84.6873 85.9193L89.3689 86.6507L91.9275 88.4803L97.6485 87.2144L102.274 87.3123L106.168 83.2737L111.313 82.4301L112.255 79.9956L112.578 72.7767L117.147 70.7789L122.855 74.3248L127.55 72.9038L129.532 74.2687L132.315 69.8363L134.27 72.6926L136.139 80.0797L138.529 79.1509L139.808 75.7183L138.051 63.4204Z" fill="#6D6D6D"/>
</svg>
