<svg width="20" height="20" viewBox="0 0 20 20" fill="none" xmlns="http://www.w3.org/2000/svg">
<path d="M11.5566 2.94443V2.3503L10.9712 2.45178L2.66734 3.89132L2.25274 3.96319V4.38397V15.4717V15.8925L2.66734 15.9643L10.9712 17.4039L11.5566 17.5053V16.9112V15.7975H16.9658C17.0515 15.7975 17.1548 15.794 17.2558 15.7723C17.3625 15.7495 17.4991 15.6997 17.6158 15.5826C17.7325 15.4656 17.7817 15.3291 17.8043 15.2228C17.8257 15.1221 17.8291 15.0193 17.8291 14.9342V4.92006C17.8291 4.83502 17.8257 4.73218 17.8043 4.63148C17.7817 4.52522 17.7325 4.38866 17.6158 4.27165C17.4991 4.15455 17.3625 4.1048 17.2558 4.08195C17.1548 4.0603 17.0515 4.05677 16.9658 4.05677H11.5566V2.94443ZM11.5566 13.8532V13.4028H13.0561V13.8532H11.5566ZM11.5566 5.85545H13.0561V6.30724H11.5566V5.85545ZM11.5566 7.74264H13.0561V8.19306H11.5566V7.74264ZM11.5566 9.62846H13.0561V10.0802H11.5566V9.62846ZM11.5566 11.5156H13.0561V11.9674H11.5566V11.5156ZM18.6699 1.38037L18.6674 18.7161H1.33419L1.33162 1.38037H18.6699Z" stroke="#1E7145"/>
<path fill-rule="evenodd" clip-rule="evenodd" d="M7.6998 7.33516L6.9433 9.06587L6.35551 7.43992L5.40988 7.4821L6.34871 9.85094L5.2915 12.1681L6.22081 12.2375L6.96643 10.5707L7.66034 12.3341L8.72979 12.3926L7.57054 9.84142L8.67945 7.2644L7.6998 7.33516Z" fill="#1E7145"/>
<path fill-rule="evenodd" clip-rule="evenodd" d="M13.9917 14.3533H16.3864V12.9028H13.9917V14.3533Z" fill="#1E7145"/>
<path fill-rule="evenodd" clip-rule="evenodd" d="M13.9917 12.4674H16.3864V11.0156H13.9917V12.4674Z" fill="#1E7145"/>
<path fill-rule="evenodd" clip-rule="evenodd" d="M13.9917 10.5802H16.3864V9.12842H13.9917V10.5802Z" fill="#1E7145"/>
<path fill-rule="evenodd" clip-rule="evenodd" d="M13.9917 6.80725H16.3864V5.35547H13.9917V6.80725Z" fill="#1E7145"/>
<path fill-rule="evenodd" clip-rule="evenodd" d="M13.9917 8.69297H16.3864V7.24255H13.9917V8.69297Z" fill="#1E7145"/>
</svg>
